#usda 1.0
(
    endTimeCode = 120
    framesPerSecond = 24
    metersPerUnit = 1
    startTimeCode = 1
    timeCodesPerSecond = 24
    upAxis = "Y"
)

def "Kitchen_set" (
    kind = "component"
    prepend references = @./Kitchen_set.usda@
)
{
    float xformOp:rotateX:alignToUpAxis = -90
    matrix4d xformOp:transform = ( (0.01, 0, 0, 0), (0, 0.01, 0, 0), (0, 0, 0.01, 0), (0, 0, 0, 1) )
    uniform token[] xformOpOrder = ["xformOp:transform", "xformOp:rotateX:alignToUpAxis"]
}

def Xform "lights"
{
    def DomeLight_1 "domelight1" (
        prepend apiSchemas = ["HoudiniViewportGuideAPI"]
    )
    {
        custom rel filters = None
        float houdini:guidescale = 1
        bool houdini:inviewermenu = 0
        color3f inputs:color = (1, 1, 1)
        float inputs:diffuse = 1
        bool inputs:enableColorTemperature = 0
        float inputs:exposure = 0
        float inputs:intensity = 2.79
        bool inputs:normalize = 0
        float inputs:specular = 1
        asset inputs:texture:file = @@
        token inputs:texture:format = "automatic"
        rel light:filters = None
        token poleAxis = "scene"
        rel portals = None
        matrix4d xformOp:transform = ( (1, 0, 0, 0), (0, 1, 0, 0), (0, 0, 1, 0), (0, 0, 0, 1) )
        uniform token[] xformOpOrder = ["xformOp:transform"]
    }

    def DistantLight "distantlight1" (
        prepend apiSchemas = ["HoudiniViewportLightAPI", "HoudiniViewportGuideAPI"]
    )
    {
        float2 houdini:clippingRange = (0.001, 10000)
        float houdini:guidescale = 1
        bool houdini:inviewermenu = 1
        float inputs:angle = 0.53
        color3f inputs:color = (1, 1, 1)
        float inputs:diffuse = 1
        bool inputs:enableColorTemperature = 0
        float inputs:exposure = 0
        float inputs:intensity = 5.59
        bool inputs:normalize = 1
        float inputs:specular = 1
        rel light:filters = None
        matrix4d xformOp:transform = ( (-0.6989673340779116, 0.6550132513921432, 0.2870580192098976, 0), (0.10463035244422986, -0.30341179802358653, 0.9470975505023177, 0), (0.7074582356856222, 0.6920252317081994, 0.14354066824353118, 0), (475.2077026367184, 80.51733398437511, -101.33593750000003, 1) )
        uniform token[] xformOpOrder = ["xformOp:transform"]
    }
}

def Xform "cameras"
{
    def Camera "camera1" (
        prepend apiSchemas = ["HoudiniViewportGuideAPI", "HoudiniCameraPlateAPI"]
    )
    {
        float2 clippingRange = (1, 1000000)
        float exposure = 0
        float focalLength = 0.5
        float focusDistance = 5
        float fStop = 0
        float horizontalAperture = 0.20955
        float horizontalApertureOffset = 0
        asset houdini:backgroundimage = @@
        asset houdini:foregroundimage = @@
        float houdini:guidescale = 1
        bool houdini:inviewermenu = 1
        token projection = "perspective"
        double shutter:close = 0.25
        double shutter:open = -0.25
        float verticalAperture = 0.11787187
        float verticalApertureOffset = 0
        matrix4d xformOp:transform = ( (0.9981350360051067, 2.0366382409535425e-8, -0.061044654959168616, 0), (-0.0037264717964608034, 0.9981350343952151, -0.060930833908726355, 0), (0.060930807536373144, 0.06104468128233778, 0.9962735485699212, 0), (1.9385486954351667, 2.4161165773086086, 19.9966094549679, 1) )
        matrix4d xformOp:transform:transform1.timeSamples = {
            1: ( (1.0000000000000002, -5.117434254131581e-17, 6.938893903907228e-17, 0), (5.117434254131581e-17, 1, -4.85722573273506e-17, 0), (-5.551115123125783e-17, 4.85722573273506e-17, 1, 0), (-1.2212453270876722e-15, 8.881784197001252e-16, 0, 1) ),
            2: ( (0.9999999695954613, 0.000015053311044485856, -0.00024613507386637284, 0), (-0.000015053311043249432, 0.999999999886699, 1.8575961394096119e-9, 0), (0.00024613507386646305, 1.847551743539011e-9, 0.9999999697087623, 0), (0.004951026800759872, 0.000010788950169038358, -0.00017641061850426354, 1) ),
            3: ( (0.999999518993356, 0.00005987400564763266, -0.000978993442529795, 0), (-0.000059874005628076255, 0.9999999982075514, 2.932811225819787e-8, 0), (0.0009789934425309885, 2.928816073693996e-8, 0.9999995207858046, 0), (0.019692274628628437, 0.00004335398151322778, -0.0007088828703700756, 1) ),
            4: ( (0.9999975924196266, 0.00013395316034972397, -0.0021902537527494284, 0), (-0.0001339531602518396, 0.9999999910282646, 1.467405734631444e-7, 0), (0.002190253752755403, 1.4665119176665575e-7, 0.999997601391362, 0), (0.04405560397623065, 0.00009862559286055728, -0.0016126311859849807, 1) ),
            5: ( (0.9999924773303357, 0.00023678163097439397, -0.0038715910421502978, 0), (-0.0002367816306685466, 0.9999999719671243, 4.5844154206164944e-7, 0), (0.003871591042169012, 4.5828354688914885e-7, 0.9999925053632114, 0), (0.07787233364178736, 0.00017833908490327843, -0.0029160292245187236, 1) ),
            6: ( (0.9999818440336348, 0.000367849815339718, -0.0060146728593518176, 0), (-0.000367849814601555, 0.9999999323426427, 0.0000011063809177702666, 0), (0.006014672859396969, 0.0000011061354658475908, 0.9999819116909922, 0), (0.12097319098472592, 0.00028498582868197175, -0.004659813070091445, 1) ),
            7: ( (0.9999627846408369, 0.0005266473409452372, -0.008611154157384712, 0), (-0.0005266473394321819, 0.999999861318709, 0.000002267738616272552, 0), (0.00861115415747727, 0.000002267387204872573, 0.9999629233221277, 0), (0.1731882370265988, 0.00042176530276316626, -0.0068962969967856225, 1) ),
            8: ( (0.9999318513614468, 0.000712662688789719, -0.011652671142788493, 0), (-0.0007126626860190148, 0.9999997460472938, 0.000004152591220815682, 0), (0.011652671142957961, 0.0000041521156885424015, 0.9999321053141529, 0), (0.23434677007675953, 0.0005925378888593791, -0.009688601634863403, 1) ),
            9: ( (0.999885094159084, 0.0009253827639339792, -0.01513083425394271, 0), (-0.0009253827592622761, 0.9999995718087715, 0.0000070016175754000765, 0), (0.015130834254228447, 0.000007001000103222521, 0.9998855223503124, 0), (0.30427721138594854, 0.0008017784127289929, -0.013109894322980153, 1) ),
            10: ( (0.9998180977864515, 0.0011642924228958138, -0.019037220433564588, 0), (-0.0011642924155002544, 0.9999993221499301, 0.000011083842212926409, 0), (0.0190372204340169, 0.000011083065325524777, 0.9998187756365212, 0), (0.3828069761584073, 0.0010545304153048995, -0.01724264140024445, 1) ),
            11: ( (0.9997260182179829, 0.0014288739674498075, -0.0233633648518961, 0), (-0.001428873956310586, 0.9999989790197356, 0.00001669441548341616, 0), (0.023363364852577374, 0.000016693462050951235, 0.9997270391982472, 0), (0.46976233308430315, 0.0013563611380533747, -0.022177872176612823, 1) ),
            12: ( (0.9996036184985909, 0.0017186066139033094, -0.028100752228904402, 0), (-0.001718606597787707, 0.9999985229029202, 0.000024152429259738373, 0), (0.028100752229890044, 0.000024151282499836058, 0.9996050955956707, 0), (0.5649682553892023, 0.001713317206463838, -0.028014454318345372, 1) ),
            13: ( (0.9994453040261354, 0.002032965946430559, -0.03324080789581858, 0), (-0.002032965923878399, 0.9999979329514616, 0.000033798767147118214, 0), (0.033240807897197876, 0.000033797410627332825, 0.999447371074674, 0), (0.6682482662357719, 0.0021318809962047602, -0.034858380395668576, 1) ),
            14: ( (0.9992451572839006, 0.002371423362569245, -0.03877488872851484, 0), (-0.002371423331879759, 0.9999971871140109, 0.000045993988204103, 0), (0.0387748887303918, 0.000045992405844713646, 0.9992479701698896, 0), (0.7794242811548763, 0.0026189276677690554, -0.04282206536076316, 1) ),
            15: ( (0.9989969720375891, 0.002733445518516896, -0.04469427407762883, 0), (-0.002733445477736992, 0.9999962622633273, 0.00006111624329100535, 0), (0.0446942740801229, 0.00006111441936818701, 0.9990007097742617, 0), (0.8983164500283606, 0.0031816828572832634, -0.05202365475472703, 1) ),
            16: ( (0.9986942870091635, 0.003118493781407702, -0.05099015681280386, 0), (-0.0031184937283215922, 0.9999951343217609, 0.00007955922329447307, 0), (0.050990156816050555, 0.00007955714244377993, 0.9986991526874026, 0), (1.0247430009940435, 0.0038276810134945105, -0.062586343480028, 1) ),
            17: ( (0.9983304190373691, 0.0035260236953027382, -0.05765363459116549, 0), (-0.0035260236274229214, 0.9999937783848246, 0.00010173013862887353, 0), (0.05765363459531696, 0.00010172778584915942, 0.9983366406525443, 0), (1.1585200884944218, 0.0045647243736959275, -0.07463770502024047, 1) ),
            18: ( (0.9978984957320066, 0.003955484467187317, -0.06467570145293024, 0), (-0.003955484381746883, 0.9999921688428789, 0.00012804772958407984, 0), (0.0646757014581557, 0.00012804509024173794, 0.9979063268891276, 0), (1.2994616475441454, 0.005400842574415199, -0.08830903103869048, 1) ),
            19: ( (0.997391487626048, 0.004406318478837523, -0.07204723983999833, 0), (-0.0044063183727837615, 0.9999902795009442, 0.00015894030727003905, 0), (0.07204723984648448, 0.0001589373671035399, 0.9974012081251039, 0), (1.4473792561472218, 0.0063442528960449, -0.10373468134260833, 1) ),
            20: ( (0.996802239826556, 0.004877960829993021, -0.07975901312643194, 0), (-0.004877960699982328, 0.9999880836966475, 0.0001948438250996623, 0), (0.07975901313438323, 0.00019484057022439716, 0.9968141561299085, 0), (1.602082007652914, 0.007403321144114017, -0.12105144425696679, 1) ),
            21: ( (0.9961235031621315, 0.005369838917854338, -0.08780165874287073, 0), (-0.005369838760248387, 0.9999855544162916, 0.0002361999809486967, 0), (0.08780165875250975, 0.0002361963978621262, 0.9961379487458399, 0), (1.763376394699172, 0.00858652317357489, -0.14039790751219172, 1) ),
            22: ( (0.9953479648213146, 0.0058813720575093004, -0.09616568197017547, 0), (-0.005881371868372441, 0.9999826644090273, 0.00028345435033223093, 0), (0.09616568198174286, 0.00028345042591930436, 0.9953653004122872, 0), (1.9310662062541217, 0.009902407066232133, -0.16191383981130514, 1) ),
            23: ( (0.9944682784730547, 0.006411971147484422, -0.10484145047090465, 0), (-0.006411970922582333, 0.9999793862990966, 0.0003370545511391723, 0), (0.10484145048465943, 0.00033705027267792037, 0.9944888921739581, 0), (2.104952439129259, 0.01135955597518934, -0.1857395833034836, 1) ),
            24: ( (0.9934770938570852, 0.0069610383842127425, -0.11381918962061872, 0), (-0.006961038119012261, 0.9999756926960989, 0.00039744844066599144, 0), (0.1138191896368381, 0.00039744379583333406, 0.9935014011609863, 0), (2.2848332252026857, 0.012966551653945446, -0.21201545725211446, 1) ),
            25: ( (0.9923670858288127, 0.007527967028808785, -0.1230889786944521, 0), (-0.007527966718478928, 0.9999715563032266, 0.0004650823458871925, 0), (0.1230889787134315, 0.0004650773227649063, 0.992395529525586, 0), (2.4705037754565957, 0.014731938691406876, -0.24088117324536995, 1) ),
            26: ( (0.9911309828402329, 0.008112141229144516, -0.13264074795790573, 0), (-0.008112140868558668, 0.9999669500233971, 0.0005403993280893443, 0), (0.13264074797995873, 0.0005403939151701273, 0.9911640328168358, 0), (2.6617563418004964, 0.016664189477631153, -0.27247526235480635, 1) ),
            27: ( (0.9897615948353952, 0.008712935899826515, -0.14246427670437595, 0), (-0.008712935483565732, 0.9999618470632037, 0.0006238374831770352, 0), (0.14246427672983397, 0.0006238316693706891, 0.9897997477721914, 0), (2.858380197520027, 0.01877166992846857, -0.306934514702629, 1) ),
            28: ( (0.9882518405361446, 0.009329716662284373, -0.15254919227555563, 0), (-0.009329716184641814, 0.9999562210345955, 0.0007158282791298112, 0), (0.15254919230476766, 0.0007158220537694243, 0.988295619501549, 0), (3.0601616370609173, 0.02106260600043841, -0.3443934319500528, 1) ),
            29: ( (0.986594774091255, 0.009961839846793639, -0.1628849700945197, 0), (-0.00996183930178006, 0.9999500460541838, 0.0008167949322482881, 0), (0.16288497012785202, 0.00081678828509648, 0.986644728037071, 0), (3.2668839957285947, 0.023545051030089414, -0.38498369326670456, 1) ),
            30: ( (0.9847836110596846, 0.010608652557873372, -0.17346093473504254, 0), (-0.010608651939223704, 0.9999432968400669, 0.0009271508239726833, 0), (0.17346093477287844, 0.0009271437452276834, 0.9848403142196176, 0), (3.4783276897561413, 0.02622685393474855, -0.42883363538443575, 1) ),
            31: ( (0.9828117536965506, 0.011269492804119145, -0.18426626204449176, 0), (-0.011269492105300066, 0.9999359488060579, 0.0010472979601872864, 0), (0.18426626208723068, 0.0010472904404890682, 0.9828758048904925, 0), (3.694270277067096, 0.029115628313898467, -0.476067747377364, 1) ),
            32: ( (0.9806728155085528, 0.011943689693157216, -0.19528998233151088, 0), (-0.011943688907375752, 0.999927978153189, 0.0011776254750380868, 0), (0.19528998237956835, 0.0011776175054742724, 0.9807448373553638, 0), (3.9144865389348844, 0.032218722492463714, -0.5268061808428044, 1) ),
            33: ( (0.9783606450439943, 0.012630563692035236, -0.20652098462364843, 0), (-0.012630562812248326, 0.9999193619583638, 0.001318508181387068, 0), (0.20652098467745514, 0.0013184997534987156, 0.9784412830856304, 0), (4.138748582617688, 0.03554319054893251, -0.5811642761852696, 1) ),
            34: ( (0.9758693488812699, 0.013329426953000167, -0.21794802199412486, 0), (-0.013329425971925126, 0.9999100782600233, 0.0014703051701044495, 0), (0.2179480220541262, 0.0014702962758915972, 0.9759592706212464, 0), (4.366825964926727, 0.03909576437256401, -0.6392521057269178, 1) ),
            35: ( (0.9731933137787394, 0.014039583704254607, -0.22955971795105465, 0), (-0.014039582614380547, 0.9999001061406854, 0.0016333584604585824, 0), (0.22955971801771005, 0.0016333490923855012, 0.9732932076380539, 0), (4.598485836567039, 0.04288282679484556, -0.7011740343829409, 1) ),
            36: ( (0.970327227948263, 0.014760330704931131, -0.2413445738766905, 0), (-0.014760329498531188, 0.9998894258062206, 0.0018079917039018067, 0), (0.24134457395047237, 0.001807981854902052, 0.9704378021420421, 0), (4.833493106973666, 0.046910385840887914, -0.7670282986488992, 1) ),
            37: ( (0.9672661014143821, 0.015490957763179101, -0.25329097749861157, 0), (-0.015490956432323554, 0.9998780186617195, 0.001994508943568764, 0), (0.2532909775800051, 0.001994498607049755, 0.9673880827526624, 0), (5.071610629252558, 0.05118405014655569, -0.8369066046489664, 1) ),
            38: ( (0.9640052854211751, 0.01623074831592278, -0.2653872123692929, 0), (-0.016230746852492896, 0.9998658673838112, 0.002193193431800647, 0), (0.2653872124587945, 0.0021931826016479347, 0.9641394180373638, 0), (5.312599404724973, 0.055709005586852545, -0.9108937459892275, 1) ),
            39: ( (0.9605404908492016, 0.0169789800685225, -0.27762146832514256, 0), (-0.016978978464225157, 0.999852955989293, 0.0024043065079856207, 0), (0.2776214684232594, 0.0024042951785667177, 0.9606875348599083, 0), (5.556218806467033, 0.06048999316036041, -0.989067242148554, 1) ),
            40: ( (0.9568678056056826, 0.017734925692254714, -0.2899818528909288, 0), (-0.01773492393863774, 0.9998392698999348, 0.002628086538960829, 0), (0.2899818529981779, 0.0026280747051285885, 0.9570285357057476, 0), (5.802226821132605, 0.06553128817340981, -1.0714969981213436, 1) ),
            41: ( (0.9529837109521418, 0.018497853577221876, -0.3024564035905348, 0), (-0.018497851665690044, 0.9998247960033224, 0.0028647479241558707, 0), (0.30245640370744176, 0.0028647355812512834, 0.9531589149488194, 0), (6.05038030824815, 0.07083668076612804, -1.158244986001062, 1) ),
            42: ( (0.9488850967351395, 0.01926702863801076, -0.3150331011201956, 0), (-0.019267026559842387, 0.999809522709615, 0.003114480167571758, 0), (0.31503310124729383, 0.003114467311426325, 0.9490755740255244, 0), (6.300435276073144, 0.07640945782056607, -1.2493649491620928, 1) ),
            43: ( (0.9445692754874766, 0.0200417131691391, -0.32769988333581973, 0), (-0.02004171091550325, 0.9997934400040921, 0.0033774470185829464, 0), (0.32769988347364926, 0.003377433645520414, 0.9447758354833843, 0), (6.5521471730291365, 0.08225238628877873, -1.344902129659033, 1) ),
            44: ( (0.9400339953693131, 0.02082116774706631, -0.3404446600016737, 0), (-0.02082116530904048, 0.9997765394953781, 0.0036537856834245874, 0), (0.34044466015078034, 0.003653771790262106, 0.9402574558739348, 0), (6.805271193615196, 0.08836769797600041, -1.44489301941816, 1) ),
            45: ( (0.9352774519210107, 0.021604652175295405, -0.3532553282436463, 0), (-0.021604649543883754, 0.9997588144592388, 0.00394360610908235, 0), (0.35325532840458024, 0.003943591693130931, 0.9355186374617719, 0), (7.059562597647361, 0.09475707581099413, -1.549365135745461, 1) ),
            46: ( (0.9302982986021863, 0.022391426468861227, -0.36611978864651296, 0), (-0.022391423635013133, 0.9997402598778543, 0.0042469903411392895, 0), (0.36611978881982765, 0.004246975400203752, 0.9305580387243317, 0), (7.3147770415853, 0.10142164163218825, -1.658336821619205, 1) ),
            47: ( (0.9250956560944039, 0.023180751874285515, -0.37902596193111543, 0), (-0.023180748828914622, 0.9997208724744862, 0.004563991956955511, 0), (0.3790259621173665, 0.004563976489333606, 0.9253747836199178, 0), (7.570670920641048, 0.10836194551447531, -1.7718170711736647, 1) ),
            48: ( (0.9196691203481475, 0.02397189192088365, -0.3919618061441679, 0), (-0.023971888654887186, 0.9997006507434624, 0.00489463557535974, 0), (0.39196180634391226, 0.004894619579840637, 0.9199684696046848, 0), (7.827001720302354, 0.11557795665745285, -1.8898053807138702, 1) ),
            49: ( (0.914018769358162, 0.024764113499130765, -0.4049153342905077, 0), (-0.024764110003409112, 0.999679594975427, 0.005238916443822454, 0), (0.40491533450430167, 0.005238899919684473, 0.9143391743827347, 0), (8.08352837584765, 0.12306905585155037, -2.0122916255301178, 1) ),
            50: ( (0.9081451686549248, 0.025556687961638246, -0.4178746323350462, 0), (-0.025556684227114785, 0.9996577072778028, 0.0055968001038563045, 0), (0.41787463256344504, 0.005596783050863974, 0.9084874613771219, 0), (8.340011638380622, 0.13083402953385392, -2.1392559627055903, 1) ),
            51: ( (0.9020493755038723, 0.026348892242155947, -0.43082787749945495, 0), (-0.02634888825979704, 0.9996349915904396, 0.00596822213515414, 0), (0.430827877743011, 0.005968204553554492, 0.9024143839134326, 0), (8.59621444587039, 0.13887106544062933, -2.270668760031313, 1) ),
            52: ( (0.8957329418080463, 0.027140009987900143, -0.4437633567767399, 0), (-0.027140005748735263, 0.9996114536964316, 0.006353087978728723, 0), (0.443763357036002, 0.006353069869246754, 0.8961214881116146, 0), (8.851902297648511, 0.1471777498584963, -2.406490551060532, 1) ),
            53: ( (0.8891979157140039, 0.02792933270041483, -0.4566694855853423, 0), (-0.027929328195556703, 0.9995871012281008, 0.0067512728390636476, 0), (0.4566694858608537, 0.006751254202897114, 0.8896108144859028, 0), (9.106843630786392, 0.15575106647101733, -2.5466720162495093, 1) ),
            54: ( (0.8824468419251443, 0.028716160880102662, -0.4695348264832414, 0), (-0.02871615610076747, 0.9995619436681651, 0.007162621665022448, 0), (0.4695348267755396, 0.007162602503835859, 0.882884898256979, 0), (9.360810196756397, 0.16458739679214518, -2.691153990044967, 1) ),
            55: ( (0.8754827607309887, 0.02949980516951371, -0.48234810786174687, 0), (-0.029499800107041275, 0.999535992346121, 0.007586949208995816, 0), (0.48234810817136126, 0.00758692952491366, 0.8759467683848676, 0), (9.613577436767311, 0.17368252217255487, -2.8398674936894643, 1) ),
            56: ( (0.8683092057654064, 0.030279587490454465, -0.49509824253824347, 0), (-0.030279582136328236, 0.9995092604298892, 0.008024040163495103, 0), (0.495098242865695, 0.008024019959094346, 0.8687999453355171, 0), (9.864924854159348, 0.18303162735940504, -2.9927337934268436, 1) ),
            57: ( (0.8609302005112703, 0.03105484216997557, -0.5077743461670963, 0), (-0.03105483651584261, 0.9994817629127901, 0.008473649374126965, 0), (0.507774346512896, 0.008473628652428712, 0.8614484375984801, 0), (10.114636382246081, 0.19262930558457825, -3.1496644836996026, 1) ),
            58: ( (0.8533502535735062, 0.031824917050316794, -0.5203657553882395, 0), (-0.03182491108800745, 0.9994535165959285, 0.008935502127610767, 0), (0.5203657557528869, 0.008935480892071308, 0.8538967369775776, 0), (10.362500746000139, 0.20246956515096137, -3.310561594840589, 1) ),
            59: ( (0.8455743527469689, 0.0325891745779284, -0.5328620456336463, 0), (-0.03258916829947581, 0.9994245400660882, 0.009409294513228243, 0), (0.5328620460176285, 0.00940927276772928, 0.8461498126808806, 0), (10.608311815996366, 0.21254583748088152, -3.4753177246722124, 1) ),
            60: ( (0.8376079579099752, 0.03334699286675182, -0.5452530485129142, 0), (-0.03334698626441111, 0.9993948536692495, 0.009894693855826794, 0), (0.545253048916705, 0.009894671604664979, 0.8382131042407254, 0), (10.851868953050023, 0.22285098658546953, -3.6438161933391164, 1) ),
            61: ( (0.8294569927786566, 0.03409776673102645, -0.5575288687005763, 0), (-0.03409775979729359, 0.9993644794798632, 0.010391339218234, 0), (0.5575288691246347, 0.010391316466109801, 0.8300925132987933, 0), (11.092977342018472, 0.23337731990848098, -3.8159312206144733, 1) ),
            62: ( (0.8211278355614803, 0.034840908682995844, -0.5696799002494839, 0), (-0.03484090141062611, 0.9993334412660236, 0.010898841970685816, 0), (0.5696799006942529, 0.010898818722691724, 0.8217943942954564, 0), (11.331448313272617, 0.2441166004930333, -3.991528124837071, 1) ),
            63: ( (0.8126273085573682, 0.035575849891010196, -0.5816968422566351, 0), (-0.03557584227303623, 0.9993017644507083, 0.01141678642462219, 0), (0.5816968427225406, 0.01141676268623025, 0.8133255441066599, 0), (11.567099650388199, 0.255060060414825, -4.170463542556515, 1) ),
            64: ( (0.8039626667447193, 0.036302041093668004, -0.5935707138102025, 0), (-0.03630203312341743, 0.9992694760692536, 0.01194473052796774, 0), (0.5935707142976532, 0.01194470630501649, 0.8046931906754655, 0), (11.799755882657516, 0.2661984154207284, -4.352585667887459, 1) ),
            65: ( (0.7951415854123445, 0.03701895346580143, -0.6052928681491633, 0), (-0.037018945136913915, 0.9992366047232637, 0.012482206618789522, 0), (0.6052928686585476, 0.01248218191747038, 0.7959049806890804, 0), (12.029248561078182, 0.27752188070726436, -4.537734510501785, 1) ),
            66: ( (0.7861721468867909, 0.037726079432289436, -0.6168550059698656, 0), (-0.03772607073873326, 0.9992031805311496, 0.013028722234012531, 0), (0.6168550065015527, 0.013028697060855583, 0.786968966355641, 0), (12.255416516536998, 0.2890201877693013, -4.725742171119981, 1) ),
            67: ( (0.7770628264137616, 0.038422933425878485, -0.6282491878170693, 0), (-0.038422924361966496, 0.9991692350755168, 0.013583760969676797, 0), (0.6282491883714068, 0.013583735331536138, 0.7778935913382445, 0), (12.478106098973655, 0.3006826022455322, -4.916433133300716, 1) ),
            68: ( (0.7678224772542953, 0.039109052585400095, -0.6394678455004208, 0), (-0.039109043145805086, 0.9991348013476277, 0.014146783389039873, 0), (0.6394678460777344, 0.014146757293078453, 0.7686876759066674, 0), (12.69717139638007, 0.31249794268380215, -5.109624570270734, 1) ),
            69: ( (0.7584603150590399, 0.039783997390997944, -0.650503792480978, 0), (-0.03978398757076737, 0.999099913689172, 0.014717227974665632, 0), (0.6505037930815709, 0.014717201428339662, 0.7593604013698676, 0), (12.912474432566409, 0.32445460014623473, -5.305126665486252, 1) ),
            70: ( (0.7489859015863163, 0.0404473522332115, -0.6613502331762315, 0), (-0.0404473420277816, 0.999064607731594, 0.015294512120496331, 0), (0.6613502338003829, 0.01529448513153936, 0.749921293854722, 0), (13.123885342703867, 0.33654055857138654, -5.502742945572459, 1) ),
            71: ( (0.7394091278317081, 0.041098725913008546, -0.6720007711360758, 0), (-0.041098715318217675, 0.999028920333225, 0.01587803315978107, 0), (0.6720007717840397, 0.01587800573618766, 0.7403802074984829, 0), (13.331282525736041, 0.3487434158083431, -5.702270624249751, 1) ),
            72: ( (0.7297401966386112, 0.04173775207011198, -0.6824494160463291, 0), (-0.041737741082213314, 0.9989928895144824, 0.016467169424629627, 0), (0.682449416718335, 0.0164671415746388, 0.7307473071241285, 0), (13.534552772835568, 0.3610504052357484, -5.9035009558242475, 1) ),
            73: ( (0.7199896048605168, 0.04236408953722706, -0.6926905895206595, 0), (-0.04236407815290054, 0.9989565543913986, 0.017061281332879513, 0), (0.6926905902169108, 0.017061253064957947, 0.7210330504691178, 0), (13.733591371169137, 0.37344841787731964, -6.106219596796224, 1) ),
            74: ( (0.7101681251467923, 0.04297742261804094, -0.70271912964612, 0), (-0.04297741083440449, 0.9989199551077464, 0.01765971249790376, 0), (0.7027191303667925, 0.017659683820728772, 0.7112481700390454, 0), (13.928302182322234, 0.3859240249243734, -6.31020697412356, 1) ),
            75: ( (0.7002867874243193, 0.04357746128713564, -0.7125302942518968, 0), (-0.043577449101755615, 0.9988831327660314, 0.018261790856950122, 0), (0.7125302949971394, 0.018261761779392587, 0.7014036546582877, 0), (14.1185976948239, 0.39846350057534674, -6.515238658668284, 1) ),
            76: ( (0.6903568601475882, 0.04416394131022723, -0.7221197628753214, 0), (-0.04416392872112815, 0.9988461293576204, 0.018866829813588636, 0), (0.7221197636452549, 0.0188668003446957, 0.6915107307899674, 0), (14.304399050301306, 0.41105284510219864, -6.721085742352862, 1) ),
            77: ( (0.6803898313896781, 0.0447366242834156, -0.7314836374036333, 0), (-0.04473661128908901, 0.9988089876922797, 0.019474129389853906, 0), (0.7314836381983499, 0.019474099538831807, 0.6815808436973984, 0), (14.485636042883222, 0.42367780805398025, -6.927515217559293, 1) ),
            78: ( (0.670397389846017, 0.04529529759039938, -0.7406184413743996, 0), (-0.04529528418981211, 0.998771751327384, 0.02008297738370192, 0), (0.7406184421939628, 0.02008294715989877, 0.6716256385186324, 0), (14.662247091559802, 0.43632391150871697, -7.134290357318097, 1) ),
            79: ( (0.66039140582187, 0.04583977427687843, -0.7495211179218765, 0), (-0.04583976046947987, 0.99873446449707, 0.020692650527458174, 0), (0.7495211187663195, 0.02069261994034685, 0.6616569413247995, 0), (14.834179185293692, 0.44897647328608015, -7.341171094856239, 1) ),
            80: ( (0.6503839122731949, 0.04636989284162846, -0.7581890263608867, 0), (-0.04636987862735724, 0.9986971720415836, 0.02130241564301414, 0), (0.7581890272302136, 0.021302384702175235, 0.651686740231611, 0), (15.001387800762616, 0.4616206300351382, -7.547914401102407, 1) ),
            81: ( (0.640387085968782, 0.04688551694398991, -0.7666199374039961, 0), (-0.04688550232327973, 0.9986599193370828, 0.021911530789633718, 0), (0.7666199382981805, 0.021911499504738856, 0.6417271666316986, 0), (15.163836792697193, 0.47424136011375495, -7.7542746587855955, 1) ),
            82: ( (0.6304132288395194, 0.047386535027762015, -0.7748120270118388, 0), (-0.04738652000154672, 0.9986227522261362, 0.022519246400357913, 0), (0.7748120279308234, 0.022519214781153103, 0.6317904766133828, 0), (15.321498256857947, 0.48682350617893455, -7.960004031807337, 1) ),
            83: ( (0.6204747495781617, 0.047872859861733466, -0.7827638688803772, 0), (-0.047872844431451414, 0.9985857169491557, 0.023124806403146222, 0), (0.782763869824074, 0.023124774459435712, 0.6218890326290057, 0), (15.474352365772983, 0.4993517974106003, -8.164852828620289, 1) ),
            84: ( (0.6105841455501483, 0.04834442799731155, -0.7904744255726484, 0), (-0.04834441216490919, 0.9985488600769873, 0.023727449323065294, 0), (0.7904744265409382, 0.023727417064695666, 0.6120352854731606, 0), (15.622387177431392, 0.5118108712949256, -8.368569858405085, 1) ),
            85: ( (0.6007539850728466, 0.04880119914393029, -0.797943038306124, 0), (-0.04880118291186507, 0.9985122284448767, 0.02432640936202931, 0), (0.7979430392988569, 0.024326376798874012, 0.6022417566279694, 0), (15.7655984171973, 0.5241852948973902, -8.570902778903687, 1) ),
            86: ( (0.5909968901170585, 0.04924315546312533, -0.8051694154101982, 0), (-0.049243138834367844, 0.9984758690880062, 0.024920917452811345, 0), (0.8051694164271922, 0.024920884594755742, 0.5925210210290518, 0), (15.903989233274864, 0.5364595855601997, -8.771598434840636, 1) ),
            87: ( (0.5813255194807742, 0.0496703007823555, -0.8121536194714633, 0), (-0.04967028376039105, 0.998439829178793, 0.025510202284280394, 0), (0.8121536205125052, 0.02551016914120731, 0.5828856903019808, 0), (16.03756992611525, 0.5486182309635872, -8.970403185943109, 1) ),
            88: ( (0.5717525524809824, 0.050082659729831475, -0.8188960531873795, 0), (-0.05008264231866081, 0.9984041559661173, 0.026093491295072664, 0), (0.8188960542522248, 0.026093457876848476, 0.5733483965148647, 0), (16.16635765221272, 0.5606457084957435, -9.167063223656495, 1) ),
            89: ( (0.5622906732048445, 0.05048027679177516, -0.8253974439516206, 0), (-0.050480258995914774, 0.9983688967166353, 0.02667001163318042, 0), (0.8253974450399931, 0.026669977949641797, 0.5639217764882088, 0), (16.290376102787707, 0.5725265038817691, -9.361324875744298, 1) ),
            90: ( (0.5529525553567871, 0.050863215293683324, -0.8316588271968186, 0), (-0.050863197118164956, 0.9983340986583121, 0.02723899107923086, 0), (0.8316588283084106, 0.02723895714017225, 0.5546184566984746, 0), (16.4096551579004, 0.5842451290279733, -9.552934898058208, 1) ),
            91: ( (0.5437508477329894, 0.0512315563073021, -0.8376815285226166, 0), (-0.05123153775767173, 0.9982998089262937, 0.02779965893153742, 0), (0.8376815296570885, 0.027799624746699166, 0.5454510388066953, 0), (16.524230516578672, 0.5957861390441521, -9.741640752867418, 1) ),
            92: ( (0.5346981603494466, 0.05158539748513636, -0.843467144638852, 0), (-0.051585378567452704, 0.9982660745112135, 0.02835124685132811, 0), (0.8434671457958338, 0.028351212430385384, 0.5364320858382327, 0), (16.634143303579098, 0.6071341484130632, -9.927190873243896, 1) ),
            93: ( (0.5258070512442162, 0.05192485182442025, -0.8490175231553672, 0), (-0.051924832545252556, 0.9982329422100116, 0.02889298966689517, 0), (0.8490175243344568, 0.02889295501944775, 0.5275741090342043, 0), (16.739439653428985, 0.6182738462832233, -10.109334913113052, 1) ),
            94: ( (0.5170900139686767, 0.052250046362560254, -0.8543347412513342, 0), (-0.05225002672898571, 0.9982004585793213, 0.02942412613576274, 0), (0.8543347424520991, 0.02942409127132565, 0.5188895553893551, 0), (16.840170272422057, 0.6291900108682758, -10.287823982696189, 1) ),
            95: ( (0.5085594657766133, 0.05256112080613337, -0.8594210832581483, 0), (-0.05256110082573404, 0.9981686698914565, 0.029943899664335243, 0), (0.8594210844801244, 0.029943864592330276, 0.5103907958851563, 0), (16.936389979258546, 0.6398675229436261, -10.46241086919233, 1) ),
            96: ( (0.5002277365137526, 0.05285822609557792, -0.8642790171908356, 0), (-0.05285820577643715, 0.9981376220930094, 0.03045155898486684, 0), (0.8642790184335286, 0.030451523714615073, 0.5020901144207429, 0), (17.02815722503497, 0.6502913784386499, -10.63285024267192, 1) ),
            97: ( (0.49210705820397665, 0.05314152290775581, -0.868911170263608, 0), (-0.053141502258454244, 0.9981073607660433, 0.03094635878998169, 0), (0.8689111715264933, 0.030946323330696978, 0.4939996974379329, 0), (17.115533593297304, 0.660446700130652, -10.798898847283347, 1) ),
            98: ( (0.48420955532188925, 0.05341118009859308, -0.8733203034256413, 0), (-0.05341115912820433, 0.9980779310918445, 0.03142756032537392, 0), (0.8733203047081638, 0.031427524686157456, 0.48613162423004436, 0), (17.198583280876115, 0.670318748454811, -10.96031567800498, 1) ),
            99: ( (0.4765472357347108, 0.05366737308802026, -0.8775092849534056, 0), (-0.053667351806106114, 0.9980493778171671, 0.031894431941725136, 0), (0.8775092862549807, 0.03189439613156106, 0.47849785791754335, 0), (17.277372560222098, 0.6798929314525592, -11.116862143309918, 1) ),
            100: ( (0.4691319822896097, 0.05391028218943866, -0.8814810631359454, 0), (-0.05391026060604404, 0.9980217452228839, 0.03234624960729475, 0), (0.8814810644559586, 0.03234621363504688, 0.47111023706672533, 0), (17.35196922395713, 0.6891548138892758, -11.268302214248175, 1) ),
            101: ( (0.46197554501561017, 0.05414009088593276, -0.8852386380894096, 0), (-0.05414006901158032, 0.9979950770949273, 0.03278229738306364, 0), (0.8852386394272176, 0.03278226125747338, 0.4639804679206825, 0), (17.42244201234907, 0.69809012558069, -11.414402560590679, 1) ),
            102: ( (0.45508953390211676, 0.05435698405543503, -0.8887850327369108, 0), (-0.0543569619011194, 0.9979694166973782, 0.033201867862744136, 0), (0.8887850340918407, 0.03320183159242951, 0.45712011720473816, 0), (17.488860024408762, 0.7066847689761109, -11.554932674821615, 1) ),
            103: ( (0.4484854122088885, 0.05456114614702912, -0.8921232629894515, 0), (-0.05456112372421104, 0.9979448067475367, 0.033604262580408245, 0), (0.8921232643608029, 0.033604226173864216, 0.45054060546135133, 0), (17.551292113296054, 0.7149248260553935, -11.68966498490976, 1) ),
            104: ( (0.4421744902550125, 0.05475275931055291, -0.8952563071632618, 0), (-0.05475273663115293, 0.9979212893927767, 0.033988792388930066, 0), (0.8952563085503054, 0.033988755854530026, 0.44425320086223546, 0), (17.60980626670814, 0.722796564605467, -11.818374956935164, 1) ),
            105: ( (0.43616791962702406, 0.054932001481635455, -0.8981870746684433, 0), (-0.05493197855802754, 0.9978989061889623, 0.03435477781288922, 0), (0.8981870760704224, 0.03435474115888787, 0.43826901343806124, 0), (17.66446897290954, 0.7302864439513193, -11.940841188795606, 1) ),
            106: ( (0.4304766877388854, 0.05509904442427554, -0.9009183740033777, 0), (-0.05509902126928035, 0.9978776980801768, 0.03470154938003524, 0), (0.900918375419508, 0.03470151261457264, 0.4325989896587082, 0), (17.71534457304871, 0.7373811202253986, -12.05684549636584, 1) ),
            107: ( (0.4251116126689974, 0.0552540517330449, -0.9034528800889654, 0), (-0.055254028359922935, 0.9978577053794819, 0.03502844793587208, 0), (0.9034528815184361, 0.035028411066979154, 0.4272539072895151, 0), (17.762494600393094, 0.7440674512686445, -12.166172993633557, 1) ),
            108: ( (0.4200833381918378, 0.05539717679698061, -0.905793100976446, 0), (-0.05539715321942511, 0.9978389677504041, 0.0353348249463839, 0), (0.9057931024184198, 0.03533478798198919, 0.4222443704414332, 0), (17.80597710710267, 0.7503325012656061, -12.268612168487532, 1) ),
            109: ( (0.4154023289141981, 0.055528560727220476, -0.907941343962386, 0), (-0.05552853695935011, 0.9978215241888101, 0.03562004279438748, 0), (0.9079413454159994, 0.035620005742325406, 0.4175808047253875, 0), (17.845845979153292, 0.7561635452254727, -12.363954955986202, 1) ),
            110: ( (0.4110788654183076, 0.05564833025043632, -0.9098996811444301, 0), (-0.05564830630678775, 0.9978054130048075, 0.03588347507546506, 0), (0.9098996826087934, 0.03588343794348546, 0.4132734524134996, 0), (17.882150240015793, 0.7615480734302267, -12.451996811088744, 1) ),
            111: ( (0.4071230393064335, 0.05575659557013564, -0.911669914451673, 0), (-0.055756571465655845, 0.9977906718042789, 0.036124506899900266, 0), (0.9116699159258727, 0.03612446969567943, 0.40933236750215407, 0), (17.91493334369668, 0.7664737959806085, -12.532536782985407, 1) ),
            112: ( (0.4035447480338226, 0.05585344819793617, -0.9132535401840605, 0), (-0.055853423947974504, 0.9977773374696274, 0.036342535207510546, 0), (0.9132535416671576, 0.036342497938663725, 0.40576741056419474, 0), (17.944232457751603, 0.7709286475800468, -12.605377593318776, 1) ),
            113: ( (0.4003536894091089, 0.055938958756973335, -0.9146517130961384, 0), (-0.05593893437727345, 0.997765446139282, 0.03653696910274122, 0), (0.9146517145871702, 0.03653693177683655, 0.4025882432698264, 0), (17.970077736895863, 0.7749007927062483, -12.670325720743698, 1) ),
            114: ( (0.3975593556335642, 0.056013174759682795, -0.9158652100618118, 0), (-0.05601315026637423, 0.9977550331854858, 0.03670723021785818, 0), (0.9158652115597917, 0.03670719284243207, 0.39980432244807806, 0), (17.99249158785745, 0.7783786313297008, -12.727191494429599, 1) ),
            115: ( (0.3951710267428629, 0.05607611836231099, -0.9168943933585849, 0), (-0.05607609377190061, 0.9977461331898565, 0.036852753112545884, 0), (0.9168943948625035, 0.036852715695119956, 0.397424893553006, 0), (18.01148792614917, 0.7813508053478451, -12.775789199264771, 1) ),
            116: ( (0.39319776330731754, 0.05612778409865246, -0.9177391736121422, 0), (-0.05612775942801552, 0.9977387799161846, 0.036972985718687304, 0), (0.9177391751209674, 0.03697294826678685, 0.3954589833911326, 0), (18.02707142547876, 0.783806205913264, -12.815937195678451, 1) ),
            117: ( (0.3916483982389066, 0.05616813659569653, -0.9183989724451276, 0), (-0.056168111862067355, 0.9977330062799025, 0.037067389839567866, 0), (0.9183989739578051, 0.03706735236074176, 0.3939153919590037, 0), (18.039236760571015, 0.785733981843683, -12.847458057151702, 1) ),
            118: ( (0.39053152754583526, 0.05619710827409252, -0.9188726848776966, 0), (-0.05619708349505496, 0.9977288443136316, 0.03713544171320697, 0), (0.9188726863931512, 0.037135404215049184, 0.3928026832322032, 0), (18.047967844245022, 0.7871235493110809, -12.870178728642657, 1) ),
            119: ( (0.3898554998679019, 0.056214597036617464, -0.9191586415318952, 0), (-0.05621457223009478, 0.9977263251281867, 0.037176632649976074, 0), (0.9191586430490312, 0.03717659514014874, 0.39212917473971465, 0), (18.05323705967451, 0.7879646030165051, -12.883930709304554, 1) ),
            120: ( (0.3896284046185826, 0.056220463948157114, -0.9192545706972755, 0), (-0.05622043913240147, 0.997725478868388, 0.03719046975511069, 0), (0.9192545722149759, 0.03719043224136859, 0.39190292575019403, 0), (18.055004488861837, 0.7882471290664874, -12.888550263026335, 1) ),
        }
        uniform token[] xformOpOrder = ["xformOp:transform", "xformOp:transform:transform1"]
    }
}

